<svg width="24" height="24" viewBox="0 0 24 24" fill="none" xmlns="http://www.w3.org/2000/svg">
<mask id="path-1-inside-1" fill="white">
<path d="M10.6023 1.09076C10.9668 -0.364238 13.0323 -0.364238 13.3983 1.09076L13.5048 1.51976C13.5671 1.76907 13.695 1.99717 13.8752 2.18037C14.0554 2.36358 14.2813 2.49523 14.5296 2.56165C14.7778 2.62807 15.0393 2.62686 15.2869 2.55812C15.5346 2.48939 15.7593 2.35564 15.9378 2.17076L16.2453 1.85426C17.2878 0.775762 19.0773 1.80926 18.6648 3.25076L18.5448 3.67676C18.4741 3.92373 18.4708 4.18511 18.5352 4.43378C18.5996 4.68246 18.7294 4.90938 18.911 5.09102C19.0926 5.27266 19.3196 5.40241 19.5682 5.46681C19.8169 5.5312 20.0783 5.52791 20.3253 5.45726L20.7498 5.33576C22.1898 4.92326 23.2248 6.71276 22.1463 7.75526L21.8298 8.06276C21.6449 8.24125 21.5111 8.46596 21.4424 8.71358C21.3737 8.9612 21.3724 9.2227 21.4389 9.47095C21.5053 9.71919 21.6369 9.94514 21.8202 10.1253C22.0034 10.3056 22.2315 10.4334 22.4808 10.4958L22.9098 10.6023C24.3648 10.9668 24.3648 13.0323 22.9098 13.3983L22.4808 13.5048C22.2315 13.5671 22.0034 13.695 21.8202 13.8752C21.6369 14.0554 21.5053 14.2813 21.4389 14.5296C21.3724 14.7778 21.3737 15.0393 21.4424 15.2869C21.5111 15.5346 21.6449 15.7593 21.8298 15.9378L22.1463 16.2453C23.2248 17.2878 22.1913 19.0773 20.7498 18.6648L20.3238 18.5448C20.0768 18.4741 19.8154 18.4708 19.5667 18.5352C19.3181 18.5996 19.0911 18.7294 18.9095 18.911C18.7279 19.0926 18.5981 19.3196 18.5337 19.5682C18.4693 19.8169 18.4726 20.0783 18.5433 20.3253L18.6648 20.7498C19.0773 22.1898 17.2878 23.2248 16.2453 22.1463L15.9378 21.8298C15.7593 21.6449 15.5346 21.5111 15.2869 21.4424C15.0393 21.3737 14.7778 21.3724 14.5296 21.4389C14.2813 21.5053 14.0554 21.6369 13.8752 21.8202C13.695 22.0034 13.5671 22.2315 13.5048 22.4808L13.3983 22.9098C13.0338 24.3648 10.9683 24.3648 10.6023 22.9098L10.4958 22.4808C10.4334 22.2315 10.3056 22.0034 10.1253 21.8202C9.94514 21.6369 9.71919 21.5053 9.47095 21.4389C9.2227 21.3724 8.9612 21.3737 8.71358 21.4424C8.46596 21.5111 8.24125 21.6449 8.06276 21.8298L7.75526 22.1463C6.71276 23.2248 4.92326 22.1913 5.33576 20.7498L5.45576 20.3238C5.52627 20.0769 5.52953 19.8158 5.46519 19.5673C5.40085 19.3188 5.27125 19.092 5.08982 18.9104C4.90839 18.7288 4.68171 18.599 4.43327 18.5345C4.18482 18.4699 3.92364 18.473 3.67676 18.5433L3.25076 18.6648C1.81076 19.0773 0.775762 17.2878 1.85426 16.2453L2.17076 15.9378C2.35564 15.7593 2.48939 15.5346 2.55812 15.2869C2.62686 15.0393 2.62807 14.7778 2.56165 14.5296C2.49523 14.2813 2.36358 14.0554 2.18037 13.8752C1.99717 13.695 1.76907 13.5671 1.51976 13.5048L1.09076 13.3983C-0.364238 13.0338 -0.364238 10.9683 1.09076 10.6023L1.51976 10.4958C1.76907 10.4334 1.99717 10.3056 2.18037 10.1253C2.36358 9.94514 2.49523 9.71919 2.56165 9.47095C2.62807 9.2227 2.62686 8.9612 2.55812 8.71358C2.48939 8.46596 2.35564 8.24125 2.17076 8.06276L1.85426 7.75526C0.775762 6.71276 1.80926 4.92326 3.25076 5.33576L3.67676 5.45576C3.92358 5.52627 4.18476 5.52953 4.43326 5.46519C4.68176 5.40085 4.90854 5.27125 5.09013 5.08982C5.27171 4.90839 5.4015 4.68171 5.46605 4.43327C5.5306 4.18482 5.52757 3.92364 5.45726 3.67676L5.33576 3.25076C4.92326 1.81076 6.71276 0.775762 7.75526 1.85426L8.06276 2.17076C8.24125 2.35564 8.46596 2.48939 8.71358 2.55812C8.9612 2.62686 9.2227 2.62807 9.47095 2.56165C9.71919 2.49523 9.94514 2.36358 10.1253 2.18037C10.3056 1.99717 10.4334 1.76907 10.4958 1.51976L10.6023 1.09076ZM19.4598 12.7503H12.3753L8.12426 18.4188C9.20708 19.0728 10.4378 19.4422 11.7018 19.4925C12.9658 19.5429 14.2219 19.2726 15.3534 18.7068C16.4848 18.141 17.4546 17.2981 18.1726 16.2567C18.8906 15.2152 19.3334 14.0089 19.4598 12.7503ZM19.4598 11.2503C19.3334 9.99159 18.8906 8.78536 18.1726 7.74387C17.4546 6.70238 16.4848 5.8595 15.3534 5.29372C14.2219 4.72793 12.9658 4.45764 11.7018 4.508C10.4378 4.55837 9.20708 4.92775 8.12426 5.58176L12.3753 11.2518H19.4598V11.2503ZM7.57226 5.95076C7.52726 5.98226 7.48526 6.01526 7.44176 6.04826L7.57226 5.95076ZM6.92576 6.48326C6.16131 7.18447 5.55115 8.03709 5.13409 8.9869C4.71703 9.93671 4.5022 10.9629 4.50326 12.0003C4.50326 14.1828 5.43626 16.1478 6.92576 17.5173L11.0628 12.0003L6.92576 6.48326Z"/>
</mask>
<path d="M10.6023 1.09076C10.9668 -0.364238 13.0323 -0.364238 13.3983 1.09076L13.5048 1.51976C13.5671 1.76907 13.695 1.99717 13.8752 2.18037C14.0554 2.36358 14.2813 2.49523 14.5296 2.56165C14.7778 2.62807 15.0393 2.62686 15.2869 2.55812C15.5346 2.48939 15.7593 2.35564 15.9378 2.17076L16.2453 1.85426C17.2878 0.775762 19.0773 1.80926 18.6648 3.25076L18.5448 3.67676C18.4741 3.92373 18.4708 4.18511 18.5352 4.43378C18.5996 4.68246 18.7294 4.90938 18.911 5.09102C19.0926 5.27266 19.3196 5.40241 19.5682 5.46681C19.8169 5.5312 20.0783 5.52791 20.3253 5.45726L20.7498 5.33576C22.1898 4.92326 23.2248 6.71276 22.1463 7.75526L21.8298 8.06276C21.6449 8.24125 21.5111 8.46596 21.4424 8.71358C21.3737 8.9612 21.3724 9.2227 21.4389 9.47095C21.5053 9.71919 21.6369 9.94514 21.8202 10.1253C22.0034 10.3056 22.2315 10.4334 22.4808 10.4958L22.9098 10.6023C24.3648 10.9668 24.3648 13.0323 22.9098 13.3983L22.4808 13.5048C22.2315 13.5671 22.0034 13.695 21.8202 13.8752C21.6369 14.0554 21.5053 14.2813 21.4389 14.5296C21.3724 14.7778 21.3737 15.0393 21.4424 15.2869C21.5111 15.5346 21.6449 15.7593 21.8298 15.9378L22.1463 16.2453C23.2248 17.2878 22.1913 19.0773 20.7498 18.6648L20.3238 18.5448C20.0768 18.4741 19.8154 18.4708 19.5667 18.5352C19.3181 18.5996 19.0911 18.7294 18.9095 18.911C18.7279 19.0926 18.5981 19.3196 18.5337 19.5682C18.4693 19.8169 18.4726 20.0783 18.5433 20.3253L18.6648 20.7498C19.0773 22.1898 17.2878 23.2248 16.2453 22.1463L15.9378 21.8298C15.7593 21.6449 15.5346 21.5111 15.2869 21.4424C15.0393 21.3737 14.7778 21.3724 14.5296 21.4389C14.2813 21.5053 14.0554 21.6369 13.8752 21.8202C13.695 22.0034 13.5671 22.2315 13.5048 22.4808L13.3983 22.9098C13.0338 24.3648 10.9683 24.3648 10.6023 22.9098L10.4958 22.4808C10.4334 22.2315 10.3056 22.0034 10.1253 21.8202C9.94514 21.6369 9.71919 21.5053 9.47095 21.4389C9.2227 21.3724 8.9612 21.3737 8.71358 21.4424C8.46596 21.5111 8.24125 21.6449 8.06276 21.8298L7.75526 22.1463C6.71276 23.2248 4.92326 22.1913 5.33576 20.7498L5.45576 20.3238C5.52627 20.0769 5.52953 19.8158 5.46519 19.5673C5.40085 19.3188 5.27125 19.092 5.08982 18.9104C4.90839 18.7288 4.68171 18.599 4.43327 18.5345C4.18482 18.4699 3.92364 18.473 3.67676 18.5433L3.25076 18.6648C1.81076 19.0773 0.775762 17.2878 1.85426 16.2453L2.17076 15.9378C2.35564 15.7593 2.48939 15.5346 2.55812 15.2869C2.62686 15.0393 2.62807 14.7778 2.56165 14.5296C2.49523 14.2813 2.36358 14.0554 2.18037 13.8752C1.99717 13.695 1.76907 13.5671 1.51976 13.5048L1.09076 13.3983C-0.364238 13.0338 -0.364238 10.9683 1.09076 10.6023L1.51976 10.4958C1.76907 10.4334 1.99717 10.3056 2.18037 10.1253C2.36358 9.94514 2.49523 9.71919 2.56165 9.47095C2.62807 9.2227 2.62686 8.9612 2.55812 8.71358C2.48939 8.46596 2.35564 8.24125 2.17076 8.06276L1.85426 7.75526C0.775762 6.71276 1.80926 4.92326 3.25076 5.33576L3.67676 5.45576C3.92358 5.52627 4.18476 5.52953 4.43326 5.46519C4.68176 5.40085 4.90854 5.27125 5.09013 5.08982C5.27171 4.90839 5.4015 4.68171 5.46605 4.43327C5.5306 4.18482 5.52757 3.92364 5.45726 3.67676L5.33576 3.25076C4.92326 1.81076 6.71276 0.775762 7.75526 1.85426L8.06276 2.17076C8.24125 2.35564 8.46596 2.48939 8.71358 2.55812C8.9612 2.62686 9.2227 2.62807 9.47095 2.56165C9.71919 2.49523 9.94514 2.36358 10.1253 2.18037C10.3056 1.99717 10.4334 1.76907 10.4958 1.51976L10.6023 1.09076ZM19.4598 12.7503H12.3753L8.12426 18.4188C9.20708 19.0728 10.4378 19.4422 11.7018 19.4925C12.9658 19.5429 14.2219 19.2726 15.3534 18.7068C16.4848 18.141 17.4546 17.2981 18.1726 16.2567C18.8906 15.2152 19.3334 14.0089 19.4598 12.7503ZM19.4598 11.2503C19.3334 9.99159 18.8906 8.78536 18.1726 7.74387C17.4546 6.70238 16.4848 5.8595 15.3534 5.29372C14.2219 4.72793 12.9658 4.45764 11.7018 4.508C10.4378 4.55837 9.20708 4.92775 8.12426 5.58176L12.3753 11.2518H19.4598V11.2503ZM7.57226 5.95076C7.52726 5.98226 7.48526 6.01526 7.44176 6.04826L7.57226 5.95076ZM6.92576 6.48326C6.16131 7.18447 5.55115 8.03709 5.13409 8.9869C4.71703 9.93671 4.5022 10.9629 4.50326 12.0003C4.50326 14.1828 5.43626 16.1478 6.92576 17.5173L11.0628 12.0003L6.92576 6.48326Z" fill="#7AA7F3" fill-opacity="0.4"/>
<path d="M7.36695 18.0524L7.49745 18.1499L7.64708 17.9496L7.51658 17.8521L7.36695 18.0524ZM10.6023 1.09076L10.3598 1.03001L10.3596 1.03053L10.6023 1.09076ZM13.3983 1.09076L13.6409 1.03053L13.6407 1.02978L13.3983 1.09076ZM13.5048 1.51976L13.2621 1.58L13.2622 1.58038L13.5048 1.51976ZM15.9378 2.17076L15.7585 1.99655L15.7579 1.99712L15.9378 2.17076ZM16.2453 1.85426L16.4246 2.02847L16.425 2.02801L16.2453 1.85426ZM18.6648 3.25076L18.4244 3.18198L18.4241 3.18298L18.6648 3.25076ZM18.5448 3.67676L18.7851 3.74552L18.7854 3.74455L18.5448 3.67676ZM20.3253 5.45726L20.394 5.69762L20.3941 5.69761L20.3253 5.45726ZM20.7498 5.33576L20.8186 5.57611L20.8186 5.5761L20.7498 5.33576ZM22.1463 7.75526L21.9725 7.57551L21.9721 7.57595L22.1463 7.75526ZM21.8298 8.06276L22.0034 8.24262L22.004 8.24207L21.8298 8.06276ZM22.4808 10.4958L22.4201 10.7383L22.4205 10.7384L22.4808 10.4958ZM22.9098 10.6023L22.9705 10.3598L22.97 10.3596L22.9098 10.6023ZM22.9098 13.3983L22.97 13.6409L22.9707 13.6407L22.9098 13.3983ZM22.4808 13.5048L22.4205 13.2621L22.4201 13.2622L22.4808 13.5048ZM21.8298 15.9378L22.004 15.7585L22.0034 15.7579L21.8298 15.9378ZM22.1463 16.2453L21.9721 16.4246L21.9725 16.425L22.1463 16.2453ZM20.7498 18.6648L20.8185 18.4244L20.8175 18.4241L20.7498 18.6648ZM20.3238 18.5448L20.255 18.7851L20.256 18.7854L20.3238 18.5448ZM18.5433 20.3253L18.3029 20.394L18.3029 20.3941L18.5433 20.3253ZM18.6648 20.7498L18.4244 20.8186L18.4244 20.8186L18.6648 20.7498ZM16.2453 22.1463L16.425 21.9725L16.4246 21.9721L16.2453 22.1463ZM15.9378 21.8298L15.7579 22.0034L15.7585 22.004L15.9378 21.8298ZM13.5048 22.4808L13.2622 22.4201L13.2621 22.4205L13.5048 22.4808ZM13.3983 22.9098L13.6408 22.9705L13.6409 22.97L13.3983 22.9098ZM10.6023 22.9098L10.3596 22.97L10.3598 22.9707L10.6023 22.9098ZM10.4958 22.4808L10.7384 22.4205L10.7383 22.4201L10.4958 22.4808ZM8.06276 21.8298L8.24207 22.004L8.24262 22.0034L8.06276 21.8298ZM7.75526 22.1463L7.57595 21.9721L7.57551 21.9725L7.75526 22.1463ZM5.33576 20.7498L5.57612 20.8185L5.5764 20.8175L5.33576 20.7498ZM5.45576 20.3238L5.21538 20.2551L5.21513 20.256L5.45576 20.3238ZM3.67676 18.5433L3.60829 18.3028L3.60819 18.3028L3.67676 18.5433ZM3.25076 18.6648L3.18219 18.4243L3.18192 18.4244L3.25076 18.6648ZM1.85426 16.2453L2.02801 16.425L2.02847 16.4246L1.85426 16.2453ZM2.17076 15.9378L1.99712 15.7579L1.99655 15.7585L2.17076 15.9378ZM1.51976 13.5048L1.58038 13.2622L1.58 13.2621L1.51976 13.5048ZM1.09076 13.3983L1.03001 13.6408L1.03053 13.6409L1.09076 13.3983ZM1.09076 10.6023L1.03053 10.3596L1.02978 10.3598L1.09076 10.6023ZM1.51976 10.4958L1.58 10.7384L1.58038 10.7383L1.51976 10.4958ZM2.17076 8.06276L1.99655 8.24207L1.99712 8.24262L2.17076 8.06276ZM1.85426 7.75526L2.02847 7.57595L2.02801 7.57551L1.85426 7.75526ZM3.25076 5.33576L3.18198 5.57612L3.18298 5.5764L3.25076 5.33576ZM3.67676 5.45576L3.74544 5.21538L3.74455 5.21513L3.67676 5.45576ZM5.45726 3.67676L5.6977 3.60829L5.69767 3.60819L5.45726 3.67676ZM5.33576 3.25076L5.57617 3.18219L5.5761 3.18192L5.33576 3.25076ZM7.75526 1.85426L7.57551 2.02801L7.57595 2.02847L7.75526 1.85426ZM8.06276 2.17076L8.24262 1.99712L8.24207 1.99655L8.06276 2.17076ZM10.4958 1.51976L10.7383 1.58038L10.7384 1.58L10.4958 1.51976ZM19.4598 12.7503L19.7085 12.7752L19.7361 12.5003H19.4598V12.7503ZM12.3753 12.7503V12.5003H12.2503L12.1753 12.6003L12.3753 12.7503ZM8.12426 18.4188L7.92426 18.2688L7.75844 18.4899L7.99501 18.6328L8.12426 18.4188ZM19.4598 11.2503H19.7098V11.2377L19.7085 11.2253L19.4598 11.2503ZM8.12426 5.58176L7.99501 5.36777L7.75847 5.51063L7.92424 5.73173L8.12426 5.58176ZM12.3753 11.2518L12.1752 11.4017L12.2502 11.5018H12.3753V11.2518ZM19.4598 11.2518V11.5018H19.7098V11.2518H19.4598ZM7.57226 5.95076L7.72189 6.15104L7.4289 5.74595L7.57226 5.95076ZM7.44176 6.04826L7.29067 5.84909L7.59139 6.24854L7.44176 6.04826ZM6.92576 6.48326L7.12578 6.33328L6.96018 6.11245L6.75677 6.29903L6.92576 6.48326ZM4.50326 12.0003H4.75326V12L4.50326 12.0003ZM6.92576 17.5173L6.75655 17.7013L6.95999 17.8883L7.12578 17.6672L6.92576 17.5173ZM11.0628 12.0003L11.2628 12.1502L11.3752 12.0003L11.2628 11.8503L11.0628 12.0003ZM10.8448 1.15151C11.1459 -0.0506376 12.8531 -0.0517516 13.1558 1.15175L13.6407 1.02978C13.2114 -0.676725 10.7876 -0.677839 10.3598 1.03001L10.8448 1.15151ZM13.1556 1.151L13.2621 1.58L13.7474 1.45953L13.6409 1.03053L13.1556 1.151ZM13.2622 1.58038C13.3354 1.87298 13.4855 2.14067 13.6969 2.35568L14.0534 2.00506C13.9045 1.85366 13.7988 1.66517 13.7473 1.45914L13.2622 1.58038ZM13.6969 2.35568C13.9084 2.5707 14.1736 2.7252 14.465 2.80315L14.5942 2.32015C14.389 2.26525 14.2023 2.15646 14.0534 2.00506L13.6969 2.35568ZM14.465 2.80315C14.7563 2.88111 15.0632 2.87968 15.3538 2.79901L15.2201 2.31723C15.0154 2.37403 14.7993 2.37504 14.5942 2.32015L14.465 2.80315ZM15.3538 2.79901C15.6444 2.71834 15.9081 2.56138 16.1176 2.3444L15.7579 1.99712C15.6104 2.1499 15.4247 2.26043 15.2201 2.31723L15.3538 2.79901ZM16.1171 2.34497L16.4246 2.02847L16.066 1.68005L15.7585 1.99655L16.1171 2.34497ZM16.425 2.02801C17.2866 1.13668 18.7653 1.99071 18.4244 3.18198L18.9051 3.31954C19.3892 1.62782 17.2889 0.414842 16.0655 1.68051L16.425 2.02801ZM18.4241 3.18298L18.3041 3.60898L18.7854 3.74455L18.9054 3.31855L18.4241 3.18298ZM18.3044 3.60801C18.2215 3.89786 18.2176 4.20461 18.2932 4.49646L18.7772 4.37111C18.724 4.16561 18.7267 3.94961 18.7851 3.74552L18.3044 3.60801ZM18.2932 4.49646C18.3688 4.78831 18.521 5.05463 18.7342 5.2678L19.0878 4.91425C18.9377 4.76414 18.8305 4.57662 18.7772 4.37111L18.2932 4.49646ZM18.7342 5.2678C18.9474 5.48098 19.2137 5.63325 19.5056 5.70882L19.6309 5.22479C19.4254 5.17157 19.2379 5.06435 19.0878 4.91425L18.7342 5.2678ZM19.5056 5.70882C19.7974 5.7844 20.1042 5.78053 20.394 5.69762L20.2565 5.2169C20.0524 5.27528 19.8364 5.27801 19.6309 5.22479L19.5056 5.70882ZM20.3941 5.69761L20.8186 5.57611L20.681 5.09541L20.2565 5.21691L20.3941 5.69761ZM20.8186 5.5761C22.0085 5.23523 22.8637 6.71408 21.9725 7.57551L22.32 7.93501C23.5858 6.71144 22.371 4.61129 20.6809 5.09543L20.8186 5.5761ZM21.9721 7.57595L21.6556 7.88345L22.004 8.24207L22.3205 7.93457L21.9721 7.57595ZM21.6561 7.88291C21.4391 8.09238 21.2822 8.35611 21.2015 8.64671L21.6833 8.78045C21.7401 8.57582 21.8506 8.39012 22.0034 8.24262L21.6561 7.88291ZM21.2015 8.64671C21.1208 8.93732 21.1194 9.24422 21.1974 9.53557L21.6804 9.40633C21.6255 9.20118 21.6265 8.98508 21.6833 8.78045L21.2015 8.64671ZM21.1974 9.53557C21.2753 9.82691 21.4298 10.0921 21.6448 10.3036L21.9955 9.94712C21.8441 9.7982 21.7353 9.61148 21.6804 9.40633L21.1974 9.53557ZM21.6448 10.3036C21.8599 10.5151 22.1275 10.6652 22.4201 10.7383L22.5414 10.2532C22.3354 10.2017 22.1469 10.096 21.9955 9.94712L21.6448 10.3036ZM22.4205 10.7384L22.8495 10.8449L22.97 10.3596L22.541 10.2531L22.4205 10.7384ZM22.849 10.8448C24.0512 11.1459 24.0523 12.8531 22.8488 13.1558L22.9707 13.6407C24.6772 13.2114 24.6784 10.7876 22.9705 10.3598L22.849 10.8448ZM22.8495 13.1556L22.4205 13.2621L22.541 13.7474L22.97 13.6409L22.8495 13.1556ZM22.4201 13.2622C22.1275 13.3354 21.8599 13.4855 21.6448 13.6969L21.9955 14.0534C22.1469 13.9045 22.3354 13.7988 22.5414 13.7473L22.4201 13.2622ZM21.6448 13.6969C21.4298 13.9084 21.2753 14.1736 21.1974 14.465L21.6804 14.5942C21.7353 14.389 21.8441 14.2023 21.9955 14.0534L21.6448 13.6969ZM21.1974 14.465C21.1194 14.7563 21.1208 15.0632 21.2015 15.3538L21.6833 15.2201C21.6265 15.0154 21.6255 14.7993 21.6804 14.5942L21.1974 14.465ZM21.2015 15.3538C21.2822 15.6444 21.4391 15.9081 21.6561 16.1176L22.0034 15.7579C21.8506 15.6104 21.7401 15.4247 21.6833 15.2201L21.2015 15.3538ZM21.6556 16.1171L21.9721 16.4246L22.3205 16.066L22.004 15.7585L21.6556 16.1171ZM21.9725 16.425C22.8638 17.2866 22.0098 18.7653 20.8185 18.4244L20.681 18.9051C22.3727 19.3892 23.5857 17.2889 22.32 16.0655L21.9725 16.425ZM20.8175 18.4241L20.3915 18.3041L20.256 18.7854L20.682 18.9054L20.8175 18.4241ZM20.3925 18.3044C20.1027 18.2215 19.7959 18.2176 19.5041 18.2932L19.6294 18.7772C19.8349 18.724 20.0509 18.7267 20.255 18.7851L20.3925 18.3044ZM19.5041 18.2932C19.2122 18.3688 18.9459 18.521 18.7327 18.7342L19.0863 19.0878C19.2364 18.9377 19.4239 18.8305 19.6294 18.7772L19.5041 18.2932ZM18.7327 18.7342C18.5195 18.9474 18.3673 19.2137 18.2917 19.5056L18.7757 19.6309C18.829 19.4254 18.9362 19.2379 19.0863 19.0878L18.7327 18.7342ZM18.2917 19.5056C18.2161 19.7974 18.22 20.1042 18.3029 20.394L18.7836 20.2565C18.7252 20.0524 18.7225 19.8364 18.7757 19.6309L18.2917 19.5056ZM18.3029 20.3941L18.4244 20.8186L18.9051 20.681L18.7836 20.2565L18.3029 20.3941ZM18.4244 20.8186C18.7653 22.0085 17.2864 22.8637 16.425 21.9725L16.0655 22.32C17.2891 23.5858 19.3892 22.371 18.9051 20.6809L18.4244 20.8186ZM16.4246 21.9721L16.1171 21.6556L15.7585 22.004L16.066 22.3205L16.4246 21.9721ZM16.1176 21.6561C15.9081 21.4391 15.6444 21.2822 15.3538 21.2015L15.2201 21.6833C15.4247 21.7401 15.6104 21.8506 15.7579 22.0034L16.1176 21.6561ZM15.3538 21.2015C15.0632 21.1208 14.7563 21.1194 14.465 21.1974L14.5942 21.6804C14.7993 21.6255 15.0154 21.6265 15.2201 21.6833L15.3538 21.2015ZM14.465 21.1974C14.1736 21.2753 13.9084 21.4298 13.6969 21.6448L14.0534 21.9955C14.2023 21.8441 14.389 21.7353 14.5942 21.6804L14.465 21.1974ZM13.6969 21.6448C13.4855 21.8599 13.3354 22.1275 13.2622 22.4201L13.7473 22.5414C13.7988 22.3354 13.9045 22.1469 14.0534 21.9955L13.6969 21.6448ZM13.2621 22.4205L13.1556 22.8495L13.6409 22.97L13.7474 22.541L13.2621 22.4205ZM13.1558 22.849C12.8546 24.0512 11.1474 24.0523 10.8447 22.8488L10.3598 22.9707C10.7891 24.6772 13.2129 24.6784 13.6408 22.9705L13.1558 22.849ZM10.8449 22.8495L10.7384 22.4205L10.2531 22.541L10.3596 22.97L10.8449 22.8495ZM10.7383 22.4201C10.6652 22.1275 10.5151 21.8599 10.3036 21.6448L9.94712 21.9955C10.096 22.1469 10.2017 22.3354 10.2532 22.5414L10.7383 22.4201ZM10.3036 21.6448C10.0921 21.4298 9.82691 21.2753 9.53557 21.1974L9.40633 21.6804C9.61148 21.7353 9.7982 21.8441 9.94712 21.9955L10.3036 21.6448ZM9.53557 21.1974C9.24422 21.1194 8.93732 21.1208 8.64671 21.2015L8.78045 21.6833C8.98508 21.6265 9.20118 21.6255 9.40633 21.6804L9.53557 21.1974ZM8.64671 21.2015C8.35611 21.2822 8.09238 21.4391 7.88291 21.6561L8.24262 22.0034C8.39012 21.8506 8.57582 21.7401 8.78045 21.6833L8.64671 21.2015ZM7.88345 21.6556L7.57595 21.9721L7.93457 22.3205L8.24207 22.004L7.88345 21.6556ZM7.57551 21.9725C6.71393 22.8638 5.23522 22.0098 5.57611 20.8185L5.09541 20.681C4.6113 22.3727 6.71159 23.5857 7.93501 22.32L7.57551 21.9725ZM5.5764 20.8175L5.6964 20.3915L5.21513 20.256L5.09513 20.682L5.5764 20.8175ZM5.69614 20.3924C5.7789 20.1028 5.78272 19.7962 5.70721 19.5046L5.22317 19.6299C5.27634 19.8353 5.27365 20.0511 5.21538 20.2551L5.69614 20.3924ZM5.70721 19.5046C5.6317 19.213 5.4796 18.9468 5.26667 18.7337L4.91297 19.0871C5.0629 19.2372 5.17 19.4246 5.22317 19.6299L5.70721 19.5046ZM5.26667 18.7337C5.05374 18.5206 4.78771 18.3683 4.49613 18.2925L4.3704 18.7764C4.57571 18.8298 4.76303 18.937 4.91297 19.0871L5.26667 18.7337ZM4.49613 18.2925C4.20456 18.2167 3.89803 18.2203 3.60829 18.3028L3.74523 18.7837C3.94925 18.7256 4.16509 18.7231 4.3704 18.7764L4.49613 18.2925ZM3.60819 18.3028L3.18219 18.4243L3.31933 18.9052L3.74533 18.7837L3.60819 18.3028ZM3.18192 18.4244C1.99198 18.7653 1.13684 17.2864 2.02801 16.425L1.68051 16.0655C0.414687 17.2891 1.62954 19.3892 3.31961 18.9051L3.18192 18.4244ZM2.02847 16.4246L2.34497 16.1171L1.99655 15.7585L1.68005 16.066L2.02847 16.4246ZM2.3444 16.1176C2.56138 15.9081 2.71834 15.6444 2.79901 15.3538L2.31723 15.2201C2.26043 15.4247 2.1499 15.6104 1.99712 15.7579L2.3444 16.1176ZM2.79901 15.3538C2.87968 15.0632 2.88111 14.7563 2.80315 14.465L2.32015 14.5942C2.37504 14.7993 2.37403 15.0154 2.31723 15.2201L2.79901 15.3538ZM2.80315 14.465C2.7252 14.1736 2.5707 13.9084 2.35568 13.6969L2.00506 14.0534C2.15646 14.2023 2.26525 14.389 2.32015 14.5942L2.80315 14.465ZM2.35568 13.6969C2.14067 13.4855 1.87298 13.3354 1.58038 13.2622L1.45914 13.7473C1.66517 13.7988 1.85366 13.9045 2.00506 14.0534L2.35568 13.6969ZM1.58 13.2621L1.151 13.1556L1.03053 13.6409L1.45953 13.7474L1.58 13.2621ZM1.15151 13.1558C-0.0506376 12.8546 -0.0517516 11.1474 1.15175 10.8447L1.02978 10.3598C-0.676725 10.7891 -0.677839 13.2129 1.03001 13.6408L1.15151 13.1558ZM1.151 10.8449L1.58 10.7384L1.45953 10.2531L1.03053 10.3596L1.151 10.8449ZM1.58038 10.7383C1.87298 10.6652 2.14067 10.5151 2.35568 10.3036L2.00506 9.94712C1.85366 10.096 1.66517 10.2017 1.45914 10.2532L1.58038 10.7383ZM2.35568 10.3036C2.5707 10.0921 2.7252 9.82691 2.80315 9.53557L2.32015 9.40633C2.26525 9.61148 2.15646 9.7982 2.00506 9.94712L2.35568 10.3036ZM2.80315 9.53557C2.88111 9.24422 2.87968 8.93732 2.79901 8.64671L2.31723 8.78045C2.37403 8.98508 2.37504 9.20118 2.32015 9.40633L2.80315 9.53557ZM2.79901 8.64671C2.71834 8.35611 2.56138 8.09238 2.3444 7.88291L1.99712 8.24262C2.1499 8.39012 2.26043 8.57582 2.31723 8.78045L2.79901 8.64671ZM2.34497 7.88345L2.02847 7.57595L1.68005 7.93457L1.99655 8.24207L2.34497 7.88345ZM2.02801 7.57551C1.13668 6.71393 1.99071 5.23522 3.18198 5.57611L3.31954 5.09541C1.62782 4.6113 0.414843 6.71159 1.68051 7.93501L2.02801 7.57551ZM3.18298 5.5764L3.60898 5.6964L3.74455 5.21513L3.31855 5.09513L3.18298 5.5764ZM3.60809 5.69614C3.89776 5.7789 4.20428 5.78272 4.49592 5.70721L4.3706 5.22317C4.16524 5.27634 3.9494 5.27365 3.74544 5.21538L3.60809 5.69614ZM4.49592 5.70721C4.78756 5.6317 5.05372 5.4796 5.26683 5.26667L4.91343 4.91297C4.76337 5.0629 4.57595 5.17 4.3706 5.22317L4.49592 5.70721ZM5.26683 5.26667C5.47994 5.05374 5.63226 4.78771 5.70802 4.49613L5.22408 4.3704C5.17074 4.57571 5.06349 4.76303 4.91343 4.91297L5.26683 5.26667ZM5.70802 4.49613C5.78377 4.20456 5.78021 3.89803 5.6977 3.60829L5.21682 3.74523C5.27492 3.94925 5.27743 4.16509 5.22408 4.3704L5.70802 4.49613ZM5.69767 3.60819L5.57617 3.18219L5.09535 3.31933L5.21685 3.74533L5.69767 3.60819ZM5.5761 3.18192C5.23523 1.99198 6.71408 1.13684 7.57551 2.02801L7.93501 1.68051C6.71144 0.414688 4.61129 1.62954 5.09543 3.31961L5.5761 3.18192ZM7.57595 2.02847L7.88345 2.34497L8.24207 1.99655L7.93457 1.68005L7.57595 2.02847ZM7.88291 2.3444C8.09238 2.56138 8.35611 2.71834 8.64671 2.79901L8.78045 2.31723C8.57582 2.26043 8.39012 2.1499 8.24262 1.99712L7.88291 2.3444ZM8.64671 2.79901C8.93732 2.87968 9.24422 2.88111 9.53557 2.80315L9.40633 2.32015C9.20118 2.37504 8.98508 2.37403 8.78045 2.31723L8.64671 2.79901ZM9.53557 2.80315C9.82691 2.7252 10.0921 2.5707 10.3036 2.35568L9.94712 2.00506C9.7982 2.15646 9.61148 2.26525 9.40633 2.32015L9.53557 2.80315ZM10.3036 2.35568C10.5151 2.14067 10.6652 1.87298 10.7383 1.58038L10.2532 1.45914C10.2017 1.66517 10.096 1.85366 9.94712 2.00506L10.3036 2.35568ZM10.7384 1.58L10.8449 1.151L10.3596 1.03053L10.2531 1.45953L10.7384 1.58ZM19.4598 12.5003H12.3753V13.0003H19.4598V12.5003ZM12.1753 12.6003L7.92426 18.2688L8.32427 18.5688L12.5753 12.9003L12.1753 12.6003ZM7.99501 18.6328C9.11393 19.3086 10.3857 19.6903 11.6918 19.7423L11.7117 19.2427C10.4899 19.194 9.30022 18.837 8.25351 18.2048L7.99501 18.6328ZM11.6918 19.7423C12.998 19.7944 14.296 19.5151 15.4652 18.9304L15.2416 18.4832C14.1479 19.0301 12.9336 19.2914 11.7117 19.2427L11.6918 19.7423ZM15.4652 18.9304C16.6343 18.3458 17.6365 17.4748 18.3785 16.3986L17.9668 16.1148C17.2728 17.1215 16.3352 17.9363 15.2416 18.4832L15.4652 18.9304ZM18.3785 16.3986C19.1204 15.3223 19.5779 14.0759 19.7085 12.7752L19.211 12.7253C19.0889 13.942 18.6609 15.108 17.9668 16.1148L18.3785 16.3986ZM19.7085 11.2253C19.5779 9.92465 19.1204 8.67819 18.3785 7.60197L17.9668 7.88576C18.6609 8.89252 19.0889 10.0585 19.211 11.2752L19.7085 11.2253ZM18.3785 7.60197C17.6365 6.52575 16.6343 5.65477 15.4652 5.07012L15.2416 5.51732C16.3352 6.06423 17.2728 6.879 17.9668 7.88576L18.3785 7.60197ZM15.4652 5.07012C14.296 4.48547 12.998 4.20616 11.6918 4.2582L11.7117 4.75781C12.9336 4.70912 14.1479 4.9704 15.2416 5.51732L15.4652 5.07012ZM11.6918 4.2582C10.3857 4.31025 9.11393 4.69195 7.99501 5.36777L8.25351 5.79576C9.30022 5.16356 10.4899 4.80649 11.7117 4.75781L11.6918 4.2582ZM7.92424 5.73173L12.1752 11.4017L12.5753 11.1018L8.32429 5.4318L7.92424 5.73173ZM12.3753 11.5018H19.4598V11.0018H12.3753V11.5018ZM19.7098 11.2518V11.2503H19.2098V11.2518H19.7098ZM7.4289 5.74595C7.37868 5.7811 7.32978 5.81942 7.29067 5.84909L7.59286 6.24744C7.64075 6.21111 7.67584 6.18342 7.71563 6.15557L7.4289 5.74595ZM7.59139 6.24854L7.72189 6.15104L7.42263 5.75049L7.29213 5.84799L7.59139 6.24854ZM6.75677 6.29903C5.96675 7.02368 5.33619 7.90481 4.90518 8.88639L5.36299 9.08741C5.7661 8.16936 6.35586 7.34525 7.09475 6.6675L6.75677 6.29903ZM4.90518 8.88639C4.47418 9.86796 4.25216 10.9285 4.25326 12.0005L4.75326 12C4.75223 10.9974 4.95988 10.0055 5.36299 9.08741L4.90518 8.88639ZM4.25326 12.0003C4.25326 14.2556 5.2177 16.2864 6.75655 17.7013L7.09497 17.3332C5.65482 16.0091 4.75326 14.11 4.75326 12.0003H4.25326ZM7.12578 17.6672L11.2628 12.1502L10.8627 11.8503L6.72575 17.3673L7.12578 17.6672ZM11.2628 11.8503L7.12578 6.33328L6.72575 6.63324L10.8627 12.1502L11.2628 11.8503Z" fill="black" fill-opacity="0.6" mask="url(#path-1-inside-1)"/>
</svg>
