<svg width="66" height="60" viewBox="0 0 66 60" fill="none" xmlns="http://www.w3.org/2000/svg">
<g filter="url(#filter0_d)">
<path d="M30.883 40.25C30.8798 40.2499 30.8741 40.2495 30.8663 40.249C30.8431 40.2473 30.8033 40.2434 30.7528 40.2348C30.6473 40.2169 30.5214 40.1829 30.4073 40.1247C30.2976 40.0688 30.2154 39.9995 30.158 39.9117C30.1041 39.8292 30.0337 39.6727 30.0337 39.375C30.0337 38.6714 30.4114 37.0246 31.6381 35.5654C32.8238 34.1549 34.8403 32.875 38.2284 32.875C41.6165 32.875 43.633 34.1549 44.8187 35.5654C46.0454 37.0246 46.4231 38.6714 46.4231 39.375C46.4231 39.6727 46.3527 39.8292 46.2988 39.9117C46.2414 39.9995 46.1592 40.0688 46.0495 40.1247C45.9354 40.1829 45.8095 40.2169 45.704 40.2348C45.6535 40.2434 45.6137 40.2473 45.5906 40.249C45.5827 40.2495 45.577 40.2499 45.5738 40.25H30.883ZM41.4155 27.6523C40.5668 28.5175 39.42 29 38.2284 29C37.0368 29 35.89 28.5175 35.0414 27.6523C34.1921 26.7863 33.7116 25.6078 33.7116 24.375C33.7116 23.1422 34.1921 21.9637 35.0414 21.0977C35.89 20.2325 37.0368 19.75 38.2284 19.75C39.42 19.75 40.5668 20.2325 41.4155 21.0977C42.2647 21.9637 42.7452 23.1422 42.7452 24.375C42.7452 25.6078 42.2647 26.7863 41.4155 27.6523Z" stroke="white" stroke-width="2"/>
<path d="M28.7061 32.9656C27.0799 34.81 26.1969 37.098 26.1947 39.3665C26.19 39.6631 26.2103 39.9586 26.255 40.2501H19.8493C19.8461 40.2499 19.8404 40.2496 19.8326 40.249C19.8094 40.2474 19.7696 40.2435 19.7191 40.2349C19.6136 40.217 19.4877 40.1829 19.3737 40.1248C19.2639 40.0688 19.1817 39.9996 19.1243 39.9118C19.0704 39.8293 19 39.6728 19 39.3751C19 38.6714 19.3777 37.0247 20.6044 35.5654C21.7901 34.155 23.8066 32.8751 27.1947 32.8751V32.8751L27.2066 32.875C27.7086 32.869 28.2096 32.8994 28.7061 32.9656Z" stroke="white" stroke-width="2"/>
<path d="M28.8122 27.9269C28.136 28.6163 27.2231 29 26.2753 29C25.3276 29 24.4146 28.6163 23.7385 27.9269C23.0616 27.2367 22.678 26.2967 22.678 25.3125C22.678 24.3283 23.0616 23.3883 23.7385 22.6981C24.4146 22.0087 25.3276 21.625 26.2753 21.625C27.2231 21.625 28.136 22.0087 28.8122 22.6981C29.4891 23.3883 29.8727 24.3283 29.8727 25.3125C29.8727 26.2967 29.4891 27.2367 28.8122 27.9269Z" stroke="white" stroke-width="2"/>
</g>
<defs>
<filter id="filter0_d" x="0" y="0" width="66" height="60" filterUnits="userSpaceOnUse" color-interpolation-filters="sRGB">
<feFlood flood-opacity="0" result="BackgroundImageFix"/>
<feColorMatrix in="SourceAlpha" type="matrix" values="0 0 0 0 0 0 0 0 0 0 0 0 0 0 0 0 0 0 127 0"/>
<feOffset/>
<feGaussianBlur stdDeviation="9"/>
<feColorMatrix type="matrix" values="0 0 0 0 0.9 0 0 0 0 0.88875 0 0 0 0 0.88875 0 0 0 0.25 0"/>
<feBlend mode="normal" in2="BackgroundImageFix" result="effect1_dropShadow"/>
<feBlend mode="normal" in="SourceGraphic" in2="effect1_dropShadow" result="shape"/>
</filter>
</defs>
</svg>
