<svg width="29" height="29" viewBox="0 0 29 29" fill="none" xmlns="http://www.w3.org/2000/svg">
<g clip-path="url(#clip0)">
<path d="M0.385541 15.1111L8.21676 22.9423C8.39345 23.119 8.67956 23.1189 8.85608 22.9423C9.03261 22.7658 9.03278 22.4797 8.85608 22.303L1.92894 15.3759L27.5783 15.376C27.828 15.376 28.0303 15.1738 28.0303 14.924C28.0303 14.7991 27.9797 14.6861 27.8979 14.6043C27.8161 14.5225 27.7031 14.4719 27.5783 14.4719L1.66419 14.4718L8.85591 7.28008C9.03244 7.10355 9.03261 6.81745 8.85591 6.64075C8.67922 6.46406 8.39312 6.46423 8.21659 6.64076L0.385541 14.4718C0.209013 14.6483 0.208847 14.9344 0.385541 15.1111Z" fill="black"/>
</g>
<defs>
<clipPath id="clip0">
<rect width="20" height="20" fill="white" transform="translate(14.1421 29) rotate(-135)"/>
</clipPath>
</defs>
</svg>
