<svg width="23" height="24" viewBox="0 0 23 24" fill="none" xmlns="http://www.w3.org/2000/svg">
<path d="M5.03125 0C5.22187 0 5.40469 0.0790176 5.53948 0.21967C5.67427 0.360322 5.75 0.551088 5.75 0.75V1.5H17.25V0.75C17.25 0.551088 17.3257 0.360322 17.4605 0.21967C17.5953 0.0790176 17.7781 0 17.9688 0C18.1594 0 18.3422 0.0790176 18.477 0.21967C18.6118 0.360322 18.6875 0.551088 18.6875 0.75V1.5H20.125C20.8875 1.5 21.6188 1.81607 22.1579 2.37868C22.6971 2.94129 23 3.70435 23 4.5V21C23 21.7956 22.6971 22.5587 22.1579 23.1213C21.6188 23.6839 20.8875 24 20.125 24H2.875C2.1125 24 1.38124 23.6839 0.842068 23.1213C0.302901 22.5587 0 21.7956 0 21V4.5C0 3.70435 0.302901 2.94129 0.842068 2.37868C1.38124 1.81607 2.1125 1.5 2.875 1.5H4.3125V0.75C4.3125 0.551088 4.38823 0.360322 4.52302 0.21967C4.65781 0.0790176 4.84063 0 5.03125 0V0ZM2.875 3C2.49375 3 2.12812 3.15804 1.85853 3.43934C1.58895 3.72064 1.4375 4.10218 1.4375 4.5V6H21.5625V4.5C21.5625 4.10218 21.411 3.72064 21.1415 3.43934C20.8719 3.15804 20.5062 3 20.125 3H2.875ZM21.5625 7.5H1.4375V21C1.4375 21.3978 1.58895 21.7794 1.85853 22.0607C2.12812 22.342 2.49375 22.5 2.875 22.5H20.125C20.5062 22.5 20.8719 22.342 21.1415 22.0607C21.411 21.7794 21.5625 21.3978 21.5625 21V7.5Z" fill="white"/>
<path d="M15.8125 11.25C15.8125 11.0511 15.8882 10.8603 16.023 10.7197C16.1578 10.579 16.3406 10.5 16.5312 10.5H17.9688C18.1594 10.5 18.3422 10.579 18.477 10.7197C18.6118 10.8603 18.6875 11.0511 18.6875 11.25V12.75C18.6875 12.9489 18.6118 13.1397 18.477 13.2803C18.3422 13.421 18.1594 13.5 17.9688 13.5H16.5312C16.3406 13.5 16.1578 13.421 16.023 13.2803C15.8882 13.1397 15.8125 12.9489 15.8125 12.75V11.25Z" fill="white"/>
</svg>
