<svg width="24" height="26" viewBox="0 0 24 26" fill="none" xmlns="http://www.w3.org/2000/svg">
<path d="M9.57088 24.1429V18.1347C9.57088 17.7148 9.99943 17.2862 10.428 17.2862H13.8563C14.2849 17.2862 14.7134 17.7148 14.7134 18.1433V24.1429C14.7134 24.3702 14.8037 24.5882 14.9644 24.749C15.1252 24.9097 15.3432 25 15.5705 25H22.4272C22.6545 25 22.8725 24.9097 23.0333 24.749C23.194 24.5882 23.2843 24.3702 23.2843 24.1429V12.1437C23.2845 12.031 23.2625 11.9195 23.2196 11.8154C23.1766 11.7112 23.1136 11.6166 23.034 11.5369L20.713 9.21758V3.5728C20.713 3.34548 20.6227 3.12748 20.462 2.96674C20.3013 2.80601 20.0833 2.71571 19.8559 2.71571H18.1418C17.9145 2.71571 17.6964 2.80601 17.5357 2.96674C17.375 3.12748 17.2847 3.34548 17.2847 3.5728V5.78923L12.749 1.2518C12.6694 1.17198 12.5748 1.10866 12.4706 1.06545C12.3665 1.02224 12.2549 1 12.1421 1C12.0294 1 11.9178 1.02224 11.8137 1.06545C11.7095 1.10866 11.6149 1.17198 11.5353 1.2518L1.25027 11.5369C1.17073 11.6166 1.10769 11.7112 1.06474 11.8154C1.0218 11.9195 0.9998 12.031 1 12.1437V24.1429C1 24.3702 1.0903 24.5882 1.25104 24.749C1.41177 24.9097 1.62978 25 1.85709 25H8.7138C8.94111 25 9.15911 24.9097 9.31985 24.749C9.48058 24.5882 9.57088 24.3702 9.57088 24.1429Z" stroke="white" stroke-width="1.3"/>
</svg>
