<svg width="29" height="23" viewBox="0 0 29 23" fill="none" xmlns="http://www.w3.org/2000/svg">
<line x1="11.3335" y1="2.11719" x2="28.0001" y2="2.11719" stroke="white" stroke-width="2" stroke-linecap="round"/>
<path d="M2.16042 2.95423C1.75961 2.57432 1.12732 2.59191 0.748169 2.99353C0.369017 3.39514 0.386574 4.0287 0.787386 4.40861L2.16042 2.95423ZM7.02874 1.68437C7.35978 1.24209 7.27032 0.614665 6.82894 0.282962C6.38756 -0.048741 5.76138 0.0408918 5.43034 0.483162L7.02874 1.68437ZM3.11844 5.24022L2.43193 5.96741C2.6388 6.1635 2.91935 6.2618 3.20309 6.23762C3.48683 6.21345 3.74678 6.06909 3.91764 5.84082L3.11844 5.24022ZM0.787386 4.40861L2.43193 5.96741L3.80496 4.51303L2.16042 2.95423L0.787386 4.40861ZM3.91764 5.84082L7.02874 1.68437L5.43034 0.483162L2.31925 4.63962L3.91764 5.84082Z" fill="white"/>
<line x1="11.3335" y1="10.5195" x2="28.0001" y2="10.5195" stroke="white" stroke-width="2" stroke-linecap="round"/>
<path d="M2.16042 11.3566C1.75961 10.9767 1.12732 10.9943 0.74817 11.3959C0.369017 11.7975 0.386575 12.431 0.787386 12.811L2.16042 11.3566ZM7.02874 10.0867C7.35978 9.64444 7.27032 9.01701 6.82894 8.68531C6.38755 8.3536 5.76138 8.44324 5.43034 8.88551L7.02874 10.0867ZM3.11844 13.6426L2.43193 14.3698C2.6388 14.5658 2.91935 14.6641 3.20309 14.64C3.48683 14.6158 3.74678 14.4714 3.91764 14.2432L3.11844 13.6426ZM0.787386 12.811L2.43193 14.3698L3.80496 12.9154L2.16042 11.3566L0.787386 12.811ZM3.91764 14.2432L7.02874 10.0867L5.43034 8.88551L2.31925 13.042L3.91764 14.2432Z" fill="white"/>
<line x1="11.3335" y1="18.9214" x2="28.0001" y2="18.9214" stroke="white" stroke-width="2" stroke-linecap="round"/>
<rect x="1" y="16.8042" width="5.18516" height="5.19557" fill="#361CBE" fill-opacity="0.42" stroke="white"/>
</svg>
