<svg width="23" height="25" viewBox="0 0 23 25" fill="none" xmlns="http://www.w3.org/2000/svg">
<path d="M22.25 11.3757V11.3766V23.6266C22.25 23.726 22.2105 23.8214 22.1402 23.8917C22.0698 23.9621 21.9745 24.0016 21.875 24.0016H14.875C14.7755 24.0016 14.6802 23.9621 14.6098 23.8917C14.5395 23.8214 14.5 23.726 14.5 23.6266V17.5016C14.5 17.1202 14.3144 16.7807 14.0801 16.5464C13.8459 16.3122 13.5064 16.1266 13.125 16.1266H9.625C9.24387 16.1266 8.90481 16.312 8.67107 16.5442C8.43789 16.7758 8.25 17.1133 8.25 17.4928V23.6266C8.25 23.726 8.21049 23.8214 8.14017 23.8917C8.06984 23.9621 7.97446 24.0016 7.875 24.0016H0.875001C0.775544 24.0016 0.680162 23.9621 0.609836 23.8917C0.53951 23.8214 0.500001 23.726 0.500001 23.6266L0.500002 11.3766L0.500001 11.3757C0.499913 11.3264 0.509538 11.2776 0.528327 11.232C0.547085 11.1865 0.574609 11.1452 0.609331 11.1103C0.609388 11.1103 0.609444 11.1102 0.609501 11.1102L11.1091 0.610618L11.1095 0.61017C11.1443 0.575248 11.1857 0.547541 11.2313 0.528636C11.2768 0.509731 11.3257 0.5 11.375 0.5C11.4243 0.5 11.4732 0.509731 11.5187 0.528636C11.5643 0.547541 11.6057 0.575248 11.6405 0.610171L11.6409 0.610551L16.2714 5.2428L17.125 6.09674V4.88931V2.62656C17.125 2.52711 17.1645 2.43172 17.2348 2.3614C17.3052 2.29107 17.4005 2.25156 17.5 2.25156H19.25C19.3495 2.25156 19.4448 2.29107 19.5152 2.3614C19.5855 2.43172 19.625 2.52711 19.625 2.62656V8.38931V8.59653L19.7716 8.743L22.1405 11.1102C22.1753 11.1451 22.2029 11.1865 22.2217 11.232C22.2405 11.2776 22.2501 11.3264 22.25 11.3757ZM22.75 23.6266V11.3766H0V23.6266C0 23.8586 0.0921886 24.0812 0.256283 24.2453C0.420377 24.4094 0.642937 24.5016 0.875001 24.5016H7.875C8.10707 24.5016 8.32963 24.4094 8.49372 24.2453C8.65781 24.0812 8.75 23.8586 8.75 23.6266V17.4928C8.75 17.0641 9.1875 16.6266 9.625 16.6266H13.125C13.5625 16.6266 14 17.0641 14 17.5016V23.6266C14 23.8586 14.0922 24.0812 14.2563 24.2453C14.4204 24.4094 14.6429 24.5016 14.875 24.5016H21.875C22.1071 24.5016 22.3296 24.4094 22.4937 24.2453C22.6578 24.0812 22.75 23.8586 22.75 23.6266Z" stroke="white"/>
</svg>