<svg width="65" height="60" viewBox="0 0 65 60" fill="none" xmlns="http://www.w3.org/2000/svg">
<g clip-path="url(#clip0)" filter="url(#filter0_d)">
<path d="M30.8743 40.75L30.869 40.7498C30.8615 40.7496 30.8482 40.749 30.8299 40.7477C30.7932 40.745 30.7374 40.7394 30.6691 40.7278C30.5301 40.7042 30.3522 40.6578 30.1803 40.5702C30.0104 40.4836 29.8544 40.3611 29.7395 40.1854C29.6263 40.0123 29.5337 39.7582 29.5337 39.375C29.5337 38.5544 29.9524 36.7935 31.2554 35.2436C32.5378 33.7181 34.6954 32.375 38.2284 32.375C41.7614 32.375 43.919 33.7181 45.2014 35.2436C46.5044 36.7935 46.9231 38.5544 46.9231 39.375C46.9231 39.7582 46.8305 40.0123 46.7173 40.1854C46.6024 40.3611 46.4464 40.4836 46.2766 40.5702C46.1046 40.6578 45.9267 40.7042 45.7877 40.7278C45.7194 40.7394 45.6636 40.745 45.6269 40.7477C45.6086 40.749 45.5953 40.7496 45.5878 40.7498L45.5825 40.75L45.5833 40.75H45.5816H30.8752H30.8735L30.8743 40.75ZM45.5815 40.75H45.5812C45.5809 40.75 45.581 40.75 45.5815 40.75ZM41.7724 28.0024C40.8308 28.9625 39.5558 29.5 38.2284 29.5C36.901 29.5 35.626 28.9625 34.6844 28.0024C33.7424 27.042 33.2116 25.7373 33.2116 24.375C33.2116 23.0127 33.7424 21.708 34.6844 20.7476C35.626 19.7875 36.901 19.25 38.2284 19.25C39.5558 19.25 40.8308 19.7875 41.7724 20.7476C42.7144 21.708 43.2452 23.0127 43.2452 24.375C43.2452 25.7373 42.7144 27.042 41.7724 28.0024Z" stroke="white"/>
<path d="M29.7157 32.6382C27.7588 34.4947 26.696 36.9539 26.6947 39.3707C26.6869 39.8383 26.7479 40.3031 26.8744 40.7501H19.8415L19.8353 40.7499C19.8278 40.7496 19.8145 40.7491 19.7962 40.7477C19.7595 40.7451 19.7037 40.7394 19.6354 40.7278C19.4964 40.7042 19.3185 40.6579 19.1466 40.5702C18.9768 40.4837 18.8207 40.3612 18.7058 40.1854C18.5927 40.0123 18.5 39.7583 18.5 39.3751C18.5 38.5545 18.9187 36.7936 20.2217 35.2437C21.5041 33.7181 23.6617 32.3751 27.1947 32.3751V32.3751L27.2006 32.375C28.047 32.365 28.8908 32.4535 29.7157 32.6382ZM19.8419 40.7501L19.8417 40.7501L19.8419 40.7501Z" stroke="white"/>
<path d="M29.1692 28.277C28.4 29.0612 27.3589 29.5 26.2753 29.5C25.1918 29.5 24.1507 29.0612 23.3815 28.277C22.612 27.4924 22.178 26.4262 22.178 25.3125C22.178 24.1988 22.612 23.1326 23.3815 22.348C24.1507 21.5638 25.1918 21.125 26.2753 21.125C27.3589 21.125 28.4 21.5638 29.1692 22.348C29.9387 23.1326 30.3727 24.1988 30.3727 25.3125C30.3727 26.4262 29.9387 27.4924 29.1692 28.277Z" stroke="white"/>
</g>
<defs>
<filter id="filter0_d" x="0" y="0" width="65" height="60" filterUnits="userSpaceOnUse" color-interpolation-filters="sRGB">
<feFlood flood-opacity="0" result="BackgroundImageFix"/>
<feColorMatrix in="SourceAlpha" type="matrix" values="0 0 0 0 0 0 0 0 0 0 0 0 0 0 0 0 0 0 127 0"/>
<feOffset/>
<feGaussianBlur stdDeviation="9"/>
<feColorMatrix type="matrix" values="0 0 0 0 0.9 0 0 0 0 0.88875 0 0 0 0 0.88875 0 0 0 0.25 0"/>
<feBlend mode="normal" in2="BackgroundImageFix" result="effect1_dropShadow"/>
<feBlend mode="normal" in="SourceGraphic" in2="effect1_dropShadow" result="shape"/>
</filter>
<clipPath id="clip0">
<rect width="29" height="24" fill="white" transform="translate(18 18)"/>
</clipPath>
</defs>
</svg>
