<svg width="24" height="24" viewBox="0 0 24 24" fill="none" xmlns="http://www.w3.org/2000/svg">
<path d="M5.48157 1.99239C5.39302 1.87849 5.28125 1.78473 5.15368 1.71734C5.02611 1.64995 4.88567 1.61047 4.74167 1.60154C4.59767 1.5926 4.45342 1.6144 4.3185 1.6655C4.18357 1.71659 4.06106 1.79581 3.95911 1.8979L2.40815 3.45036C1.68367 4.17634 1.41667 5.20382 1.73316 6.10529C3.04674 9.83658 5.18352 13.2243 7.98501 16.0171C10.7778 18.8185 14.1655 20.9553 17.8968 22.2689C18.7982 22.5854 19.8257 22.3184 20.5517 21.5939L22.1027 20.043C22.2047 19.941 22.284 19.8185 22.3351 19.6836C22.3862 19.5486 22.408 19.4044 22.399 19.2604C22.3901 19.1164 22.3506 18.9759 22.2832 18.8484C22.2158 18.7208 22.1221 18.609 22.0082 18.5205L18.5478 15.8296C18.4261 15.7352 18.2845 15.6697 18.1338 15.638C17.9831 15.6063 17.8272 15.6092 17.6778 15.6466L14.3929 16.467C13.9544 16.5766 13.495 16.5708 13.0595 16.4502C12.6239 16.3295 12.227 16.0981 11.9074 15.7786L8.22351 12.0931C7.90367 11.7737 7.67201 11.3769 7.55109 10.9413C7.43017 10.5058 7.42412 10.0463 7.53352 9.60771L8.3555 6.32279C8.39286 6.17339 8.3958 6.01745 8.3641 5.86674C8.3324 5.71604 8.26689 5.5745 8.17251 5.45281L5.48157 1.99239ZM2.82664 0.766924C3.08912 0.504354 3.40447 0.300631 3.75172 0.16928C4.09898 0.0379297 4.47021 -0.0180419 4.84076 0.00508193C5.21131 0.0282058 5.5727 0.129896 5.90093 0.3034C6.22917 0.476904 6.51674 0.718252 6.74454 1.01142L9.43548 4.47033C9.92896 5.10482 10.103 5.9313 9.90796 6.71128L9.08749 9.9962C9.04506 10.1663 9.04736 10.3446 9.09414 10.5136C9.14092 10.6825 9.2306 10.8366 9.35448 10.9607L13.0399 14.6461C13.1641 14.7702 13.3184 14.86 13.4877 14.9068C13.657 14.9536 13.8355 14.9558 14.0059 14.9131L17.2893 14.0926C17.6742 13.9964 18.076 13.9889 18.4642 14.0707C18.8524 14.1526 19.2169 14.3216 19.5302 14.5651L22.9891 17.256C24.2326 18.2235 24.3466 20.061 23.2336 21.1724L21.6827 22.7234C20.5727 23.8334 18.9137 24.3208 17.3673 23.7764C13.4092 22.3837 9.81538 20.1177 6.85254 17.1465C3.88154 14.1841 1.61558 10.5909 0.222701 6.63328C-0.320286 5.08832 0.167202 3.42786 1.27718 2.31789L2.82814 0.766924H2.82664Z" fill="white"/>
</svg>
