<svg width="28" height="22" viewBox="0 0 28 22" fill="none" xmlns="http://www.w3.org/2000/svg">
<line x1="11" y1="2.17188" x2="27" y2="2.17188" stroke="white" stroke-width="2" stroke-linecap="round"/>
<path d="M2.14436 2.98826C1.74315 2.60873 1.11022 2.6263 0.730691 3.02752C0.351158 3.42873 0.368733 4.06165 0.769947 4.44118L2.14436 2.98826ZM6.84297 1.81484C7.17434 1.37302 7.0848 0.746215 6.64297 0.414844C6.20114 0.083473 5.57434 0.173016 5.24297 0.614844L6.84297 1.81484ZM3.04297 5.21484L2.35576 5.94131C2.56284 6.13719 2.84367 6.2354 3.1277 6.21125C3.41172 6.1871 3.67194 6.04288 3.84297 5.81484L3.04297 5.21484ZM0.769947 4.44118L2.35576 5.94131L3.73018 4.48838L2.14436 2.98826L0.769947 4.44118ZM3.84297 5.81484L6.84297 1.81484L5.24297 0.614844L2.24297 4.61484L3.84297 5.81484Z" fill="white"/>
<line x1="11" y1="10.2578" x2="27" y2="10.2578" stroke="white" stroke-width="2" stroke-linecap="round"/>
<path d="M2.14436 11.0742C1.74315 10.6947 1.11022 10.7122 0.730691 11.1135C0.351158 11.5147 0.368733 12.1476 0.769947 12.5271L2.14436 11.0742ZM6.84297 9.90078C7.17434 9.45895 7.0848 8.83215 6.64297 8.50078C6.20114 8.16941 5.57434 8.25895 5.24297 8.70078L6.84297 9.90078ZM3.04297 13.3008L2.35576 14.0272C2.56284 14.2231 2.84367 14.3213 3.1277 14.2972C3.41172 14.273 3.67194 14.1288 3.84297 13.9008L3.04297 13.3008ZM0.769947 12.5271L2.35576 14.0272L3.73018 12.5743L2.14436 11.0742L0.769947 12.5271ZM3.84297 13.9008L6.84297 9.90078L5.24297 8.70078L2.24297 12.7008L3.84297 13.9008Z" fill="white"/>
<line x1="11" y1="18.3438" x2="27" y2="18.3438" stroke="white" stroke-width="2" stroke-linecap="round"/>
<rect x="1" y="16.3438" width="5" height="5" stroke="white"/>
</svg>
