<svg width="30" height="24" viewBox="0 0 30 24" fill="none" xmlns="http://www.w3.org/2000/svg">
<path d="M12.883 22.25C12.8798 22.2499 12.8741 22.2495 12.8663 22.249C12.8431 22.2473 12.8033 22.2434 12.7528 22.2348C12.6473 22.2169 12.5214 22.1829 12.4073 22.1247C12.2976 22.0688 12.2154 21.9995 12.158 21.9117C12.1041 21.8292 12.0337 21.6727 12.0337 21.375C12.0337 20.6714 12.4114 19.0246 13.6381 17.5654C14.8238 16.1549 16.8403 14.875 20.2284 14.875C23.6165 14.875 25.633 16.1549 26.8187 17.5654C28.0454 19.0246 28.4231 20.6714 28.4231 21.375C28.4231 21.6727 28.3527 21.8292 28.2988 21.9117C28.2414 21.9995 28.1592 22.0688 28.0495 22.1247C27.9354 22.1829 27.8095 22.2169 27.704 22.2348C27.6535 22.2434 27.6137 22.2473 27.5906 22.249C27.5827 22.2495 27.577 22.2499 27.5738 22.25H12.883ZM23.4155 9.65227C22.5668 10.5175 21.42 11 20.2284 11C19.0368 11 17.89 10.5175 17.0414 9.65227C16.1921 8.78634 15.7116 7.60782 15.7116 6.375C15.7116 5.14218 16.1921 3.96366 17.0414 3.09773C17.89 2.23246 19.0368 1.75 20.2284 1.75C21.42 1.75 22.5668 2.23246 23.4155 3.09773C24.2647 3.96366 24.7452 5.14218 24.7452 6.375C24.7452 7.60782 24.2647 8.78634 23.4155 9.65227Z" stroke="white" stroke-width="2"/>
<path d="M10.7061 14.9656C9.07995 16.81 8.19694 19.098 8.19472 21.3665C8.19002 21.6631 8.21034 21.9586 8.25504 22.2501H1.84934C1.84608 22.2499 1.84041 22.2496 1.83256 22.249C1.80938 22.2474 1.76959 22.2435 1.71914 22.2349C1.61359 22.217 1.48773 22.1829 1.37366 22.1248C1.26391 22.0688 1.18172 21.9996 1.1243 21.9118C1.07037 21.8293 1 21.6728 1 21.3751C1 20.6714 1.37768 19.0247 2.6044 17.5654C3.79011 16.155 5.80663 14.8751 9.19471 14.8751V14.8751L9.20657 14.875C9.70858 14.869 10.2096 14.8994 10.7061 14.9656Z" stroke="white" stroke-width="2"/>
<path d="M10.8122 9.92685C10.136 10.6163 9.22308 11 8.27533 11C7.32759 11 6.41465 10.6163 5.73845 9.92685C5.06161 9.23674 4.67798 8.29668 4.67798 7.3125C4.67798 6.32832 5.06161 5.38826 5.73845 4.69815C6.41465 4.00869 7.32759 3.625 8.27533 3.625C9.22308 3.625 10.136 4.00869 10.8122 4.69815C11.4891 5.38826 11.8727 6.32832 11.8727 7.3125C11.8727 8.29668 11.4891 9.23674 10.8122 9.92685Z" stroke="white" stroke-width="2"/>
</svg>
