<svg width="31" height="22" viewBox="0 0 31 22" fill="none" xmlns="http://www.w3.org/2000/svg">
<path d="M29.3831 9.81179L23.1659 9.80092C22.482 9.80092 21.9225 10.2901 21.9225 10.8879V20.6705C21.9225 21.2683 22.482 21.7574 23.1659 21.7574H29.3831C30.067 21.7574 30.6266 21.2683 30.6266 20.6705V10.8879C30.6266 10.2901 30.067 9.81179 29.3831 9.81179ZM29.3831 19.5835H23.1659V11.9748H29.3831V19.5835ZM25.6528 0.0183105H3.27082C1.8906 0.0183105 0.783936 0.985702 0.783936 2.19222V15.2357C0.783936 16.4314 1.8906 17.4096 3.27082 17.4096H11.9749V19.5835H9.48804V21.7574H19.4356V19.5835H16.9487V17.4096H19.4356V15.2357H3.27082V2.19222H25.6528V7.62701H28.1397V2.19222C28.1397 0.985702 27.0206 0.0183105 25.6528 0.0183105Z" fill="white"/>
</svg>
