<svg width="21" height="17" viewBox="0 0 21 17" fill="none" xmlns="http://www.w3.org/2000/svg">
<path d="M7.875 8.5C8.91929 8.5 9.92081 8.08516 10.6592 7.34673C11.3977 6.60831 11.8125 5.60679 11.8125 4.5625C11.8125 3.51821 11.3977 2.51669 10.6592 1.77827C9.92081 1.03984 8.91929 0.625 7.875 0.625C6.83071 0.625 5.82919 1.03984 5.09077 1.77827C4.35234 2.51669 3.9375 3.51821 3.9375 4.5625C3.9375 5.60679 4.35234 6.60831 5.09077 7.34673C5.82919 8.08516 6.83071 8.5 7.875 8.5ZM1.3125 16.375C1.3125 16.375 0 16.375 0 15.0625C0 13.75 1.3125 9.8125 7.875 9.8125C14.4375 9.8125 15.75 13.75 15.75 15.0625C15.75 16.375 14.4375 16.375 14.4375 16.375H1.3125ZM14.4375 2.59375C14.4375 2.4197 14.5066 2.25278 14.6297 2.12971C14.7528 2.00664 14.9197 1.9375 15.0938 1.9375H20.3438C20.5178 1.9375 20.6847 2.00664 20.8078 2.12971C20.9309 2.25278 21 2.4197 21 2.59375C21 2.7678 20.9309 2.93472 20.8078 3.05779C20.6847 3.18086 20.5178 3.25 20.3438 3.25H15.0938C14.9197 3.25 14.7528 3.18086 14.6297 3.05779C14.5066 2.93472 14.4375 2.7678 14.4375 2.59375ZM15.0938 5.875C14.9197 5.875 14.7528 5.94414 14.6297 6.06721C14.5066 6.19028 14.4375 6.3572 14.4375 6.53125C14.4375 6.7053 14.5066 6.87222 14.6297 6.99529C14.7528 7.11836 14.9197 7.1875 15.0938 7.1875H20.3438C20.5178 7.1875 20.6847 7.11836 20.8078 6.99529C20.9309 6.87222 21 6.7053 21 6.53125C21 6.3572 20.9309 6.19028 20.8078 6.06721C20.6847 5.94414 20.5178 5.875 20.3438 5.875H15.0938ZM17.7188 9.8125C17.5447 9.8125 17.3778 9.88164 17.2547 10.0047C17.1316 10.1278 17.0625 10.2947 17.0625 10.4688C17.0625 10.6428 17.1316 10.8097 17.2547 10.9328C17.3778 11.0559 17.5447 11.125 17.7188 11.125H20.3438C20.5178 11.125 20.6847 11.0559 20.8078 10.9328C20.9309 10.8097 21 10.6428 21 10.4688C21 10.2947 20.9309 10.1278 20.8078 10.0047C20.6847 9.88164 20.5178 9.8125 20.3438 9.8125H17.7188ZM17.7188 13.75C17.5447 13.75 17.3778 13.8191 17.2547 13.9422C17.1316 14.0653 17.0625 14.2322 17.0625 14.4062C17.0625 14.5803 17.1316 14.7472 17.2547 14.8703C17.3778 14.9934 17.5447 15.0625 17.7188 15.0625H20.3438C20.5178 15.0625 20.6847 14.9934 20.8078 14.8703C20.9309 14.7472 21 14.5803 21 14.4062C21 14.2322 20.9309 14.0653 20.8078 13.9422C20.6847 13.8191 20.5178 13.75 20.3438 13.75H17.7188Z" fill="#131354" fill-opacity="0.63"/>
</svg>
